<svg width="523" height="74" viewBox="0 0 523 74" fill="none" xmlns="http://www.w3.org/2000/svg">
<path d="M56.817 21.5357C56.7953 21.5711 56.8928 21.5794 56.9273 21.5993C58.1269 20.4504 55.7078 20.0096 53.8244 19.7936C45.7247 19.7466 42.4986 25.96 42.569 29.5741C42.8037 41.6376 63.0652 50.4955 81 54.25L0.707133 54.0844C-4.0572 42.5344 16.0575 18.5569 36.8827 14.4872C43.8983 13.1161 56.1551 13.2773 58.887 18.2988C59.4566 19.3456 59.3526 21.212 57.0402 21.5845" fill="url(#paint0_linear_114_21)"/>
<path d="M68.9085 37.8928C68.8976 37.9105 68.9464 37.9147 68.9637 37.9247C69.5634 37.3502 68.3539 37.1298 67.4122 37.0218C63.3624 36.9983 61.7493 40.105 61.7845 41.912C61.9018 47.9438 72.0326 52.3727 81 54.25L40.8536 54.1672C38.4714 48.3922 48.5287 36.4034 58.9414 34.3686C62.4492 33.6831 68.5775 33.7636 69.9435 36.2744C70.2283 36.7978 70.1763 37.731 69.0201 37.9173" fill="url(#paint1_linear_114_21)"/>
<path d="M74.9542 46.0714C74.9488 46.0803 74.9732 46.0824 74.9818 46.0873C75.2817 45.8001 74.6769 45.6899 74.2061 45.6359C72.1812 45.6242 71.3746 47.1775 71.3922 48.081C71.4509 51.0969 76.5163 53.3114 81 54.25L60.9268 54.2086C59.7357 51.3211 64.7644 45.3267 69.9707 44.3093C71.7246 43.9665 74.7888 44.0068 75.4717 45.2622C75.6141 45.5239 75.5881 45.9905 75.01 46.0836" fill="url(#paint2_linear_114_21)"/>
<path d="M115.808 47.488H98.016L95.072 56H85.664L101.728 11.264H112.16L128.224 56H118.752L115.808 47.488ZM113.376 40.32L106.912 21.632L100.448 40.32H113.376ZM148.116 19.968C150.762 19.968 153.087 20.5013 155.092 21.568C157.098 22.592 158.676 23.936 159.828 25.6V20.544H168.852V56.256C168.852 59.5413 168.191 62.464 166.868 65.024C165.546 67.6267 163.562 69.6747 160.916 71.168C158.271 72.704 155.071 73.472 151.316 73.472C146.282 73.472 142.143 72.2987 138.9 69.952C135.7 67.6053 133.887 64.4053 133.46 60.352H142.356C142.826 61.9733 143.828 63.2533 145.364 64.192C146.943 65.1733 148.842 65.664 151.06 65.664C153.663 65.664 155.775 64.8747 157.396 63.296C159.018 61.76 159.828 59.4133 159.828 56.256V50.752C158.676 52.416 157.076 53.8027 155.028 54.912C153.023 56.0213 150.719 56.576 148.116 56.576C145.13 56.576 142.399 55.808 139.924 54.272C137.45 52.736 135.487 50.5813 134.036 47.808C132.628 44.992 131.924 41.7707 131.924 38.144C131.924 34.56 132.628 31.3813 134.036 28.608C135.487 25.8347 137.428 23.7013 139.86 22.208C142.335 20.7147 145.087 19.968 148.116 19.968ZM159.828 38.272C159.828 36.096 159.402 34.24 158.548 32.704C157.695 31.1253 156.543 29.9307 155.092 29.12C153.642 28.2667 152.084 27.84 150.42 27.84C148.756 27.84 147.22 28.2453 145.812 29.056C144.404 29.8667 143.252 31.0613 142.356 32.64C141.503 34.176 141.076 36.0107 141.076 38.144C141.076 40.2773 141.503 42.1547 142.356 43.776C143.252 45.3547 144.404 46.5707 145.812 47.424C147.263 48.2773 148.799 48.704 150.42 48.704C152.084 48.704 153.642 48.2987 155.092 47.488C156.543 46.6347 157.695 45.44 158.548 43.904C159.402 42.3253 159.828 40.448 159.828 38.272ZM210.563 37.504C210.563 38.784 210.478 39.936 210.307 40.96H184.387C184.601 43.52 185.497 45.5253 187.075 46.976C188.654 48.4267 190.595 49.152 192.899 49.152C196.227 49.152 198.595 47.7227 200.003 44.864H209.667C208.643 48.2773 206.681 51.0933 203.779 53.312C200.878 55.488 197.315 56.576 193.091 56.576C189.678 56.576 186.606 55.8293 183.875 54.336C181.187 52.8 179.075 50.6453 177.539 47.872C176.046 45.0987 175.299 41.8987 175.299 38.272C175.299 34.6027 176.046 31.3813 177.539 28.608C179.033 25.8347 181.123 23.7013 183.811 22.208C186.499 20.7147 189.593 19.968 193.091 19.968C196.462 19.968 199.47 20.6933 202.115 22.144C204.803 23.5947 206.873 25.664 208.323 28.352C209.817 30.9973 210.563 34.048 210.563 37.504ZM201.283 34.944C201.241 32.64 200.409 30.8053 198.787 29.44C197.166 28.032 195.182 27.328 192.835 27.328C190.617 27.328 188.739 28.0107 187.203 29.376C185.71 30.6987 184.793 32.5547 184.451 34.944H201.283ZM236.751 20.032C240.975 20.032 244.389 21.376 246.991 24.064C249.594 26.7093 250.895 30.4213 250.895 35.2V56H241.935V36.416C241.935 33.6 241.231 31.4453 239.823 29.952C238.415 28.416 236.495 27.648 234.063 27.648C231.589 27.648 229.626 28.416 228.175 29.952C226.767 31.4453 226.063 33.6 226.063 36.416V56H217.103V20.544H226.063V24.96C227.258 23.424 228.773 22.2293 230.607 21.376C232.485 20.48 234.533 20.032 236.751 20.032ZM257.112 38.144C257.112 34.56 257.816 31.3813 259.224 28.608C260.675 25.8347 262.637 23.7013 265.112 22.208C267.587 20.7147 270.339 19.968 273.368 19.968C275.672 19.968 277.869 20.48 279.96 21.504C282.051 22.4853 283.715 23.808 284.952 25.472V8.64H294.04V56H284.952V50.752C283.843 52.5013 282.285 53.9093 280.28 54.976C278.275 56.0427 275.949 56.576 273.304 56.576C270.317 56.576 267.587 55.808 265.112 54.272C262.637 52.736 260.675 50.5813 259.224 47.808C257.816 44.992 257.112 41.7707 257.112 38.144ZM285.016 38.272C285.016 36.096 284.589 34.24 283.736 32.704C282.883 31.1253 281.731 29.9307 280.28 29.12C278.829 28.2667 277.272 27.84 275.608 27.84C273.944 27.84 272.408 28.2453 271 29.056C269.592 29.8667 268.44 31.0613 267.544 32.64C266.691 34.176 266.264 36.0107 266.264 38.144C266.264 40.2773 266.691 42.1547 267.544 43.776C268.44 45.3547 269.592 46.5707 271 47.424C272.451 48.2773 273.987 48.704 275.608 48.704C277.272 48.704 278.829 48.2987 280.28 47.488C281.731 46.6347 282.883 45.44 283.736 43.904C284.589 42.3253 285.016 40.448 285.016 38.272ZM300.487 38.144C300.487 34.56 301.191 31.3813 302.599 28.608C304.05 25.8347 305.991 23.7013 308.423 22.208C310.898 20.7147 313.65 19.968 316.679 19.968C319.324 19.968 321.628 20.5013 323.591 21.568C325.596 22.6347 327.196 23.9787 328.391 25.6V20.544H337.415V56H328.391V50.816C327.239 52.48 325.639 53.8667 323.591 54.976C321.586 56.0427 319.26 56.576 316.615 56.576C313.628 56.576 310.898 55.808 308.423 54.272C305.991 52.736 304.05 50.5813 302.599 47.808C301.191 44.992 300.487 41.7707 300.487 38.144ZM328.391 38.272C328.391 36.096 327.964 34.24 327.111 32.704C326.258 31.1253 325.106 29.9307 323.655 29.12C322.204 28.2667 320.647 27.84 318.983 27.84C317.319 27.84 315.783 28.2453 314.375 29.056C312.967 29.8667 311.815 31.0613 310.919 32.64C310.066 34.176 309.639 36.0107 309.639 38.144C309.639 40.2773 310.066 42.1547 310.919 43.776C311.815 45.3547 312.967 46.5707 314.375 47.424C315.826 48.2773 317.362 48.704 318.983 48.704C320.647 48.704 322.204 48.2987 323.655 47.488C325.106 46.6347 326.258 45.44 327.111 43.904C327.964 42.3253 328.391 40.448 328.391 38.272ZM402.742 11.392L389.814 56H383.286L372.918 20.096L362.166 56L355.702 56.064L343.222 11.392H349.43L359.158 49.216L369.91 11.392H376.438L386.678 49.088L396.47 11.392H402.742ZM406.939 38.336C406.939 34.752 407.665 31.616 409.115 28.928C410.566 26.1973 412.55 24.0853 415.067 22.592C417.627 21.0987 420.465 20.352 423.579 20.352C426.651 20.352 429.318 21.0133 431.579 22.336C433.841 23.6587 435.526 25.3227 436.635 27.328V20.928H442.523V56H436.635V49.472C435.483 51.52 433.755 53.2267 431.451 54.592C429.19 55.9147 426.545 56.576 423.515 56.576C420.401 56.576 417.585 55.808 415.067 54.272C412.55 52.736 410.566 50.5813 409.115 47.808C407.665 45.0347 406.939 41.8773 406.939 38.336ZM436.635 38.4C436.635 35.7547 436.102 33.4507 435.035 31.488C433.969 29.5253 432.518 28.032 430.683 27.008C428.891 25.9413 426.907 25.408 424.731 25.408C422.555 25.408 420.571 25.92 418.779 26.944C416.987 27.968 415.558 29.4613 414.491 31.424C413.425 33.3867 412.891 35.6907 412.891 38.336C412.891 41.024 413.425 43.3707 414.491 45.376C415.558 47.3387 416.987 48.8533 418.779 49.92C420.571 50.944 422.555 51.456 424.731 51.456C426.907 51.456 428.891 50.944 430.683 49.92C432.518 48.8533 433.969 47.3387 435.035 45.376C436.102 43.3707 436.635 41.0453 436.635 38.4ZM465.421 50.624L476.301 20.928H482.509L468.749 56H461.965L448.205 20.928H454.477L465.421 50.624ZM520.24 37.12C520.24 38.2293 520.176 39.4027 520.048 40.64H492.016C492.23 44.096 493.403 46.8053 495.536 48.768C497.712 50.688 500.336 51.648 503.408 51.648C505.926 51.648 508.016 51.072 509.68 49.92C511.387 48.7253 512.582 47.1467 513.264 45.184H519.536C518.598 48.5547 516.72 51.3067 513.904 53.44C511.088 55.5307 507.59 56.576 503.408 56.576C500.08 56.576 497.094 55.8293 494.448 54.336C491.846 52.8427 489.798 50.7307 488.304 48C486.811 45.2267 486.064 42.0267 486.064 38.4C486.064 34.7733 486.79 31.5947 488.24 28.864C489.691 26.1333 491.718 24.0427 494.32 22.592C496.966 21.0987 499.995 20.352 503.408 20.352C506.736 20.352 509.68 21.0773 512.24 22.528C514.8 23.9787 516.763 25.984 518.128 28.544C519.536 31.0613 520.24 33.92 520.24 37.12ZM514.224 35.904C514.224 33.6853 513.734 31.7867 512.752 30.208C511.771 28.5867 510.427 27.3707 508.72 26.56C507.056 25.7067 505.2 25.28 503.152 25.28C500.208 25.28 497.691 26.2187 495.6 28.096C493.552 29.9733 492.379 32.576 492.08 35.904H514.224Z" fill="black"/>
<defs>
<linearGradient id="paint0_linear_114_21" x1="80.9981" y1="-15.77" x2="-0.000307034" y2="-15.77" gradientUnits="userSpaceOnUse">
<stop stop-color="#33C9EF"/>
<stop offset="1" stop-color="#008C99"/>
</linearGradient>
<linearGradient id="paint1_linear_114_21" x1="80.9991" y1="19.24" x2="40.4998" y2="19.24" gradientUnits="userSpaceOnUse">
<stop stop-color="#33C9EF"/>
<stop offset="1" stop-color="#008C99"/>
</linearGradient>
<linearGradient id="paint2_linear_114_21" x1="80.9995" y1="36.745" x2="60.7499" y2="36.745" gradientUnits="userSpaceOnUse">
<stop stop-color="#33C9EF"/>
<stop offset="1" stop-color="#008C99"/>
</linearGradient>
</defs>
</svg>
