<svg width="64" height="32" viewBox="0 0 64 32" fill="none" xmlns="http://www.w3.org/2000/svg">
<path d="M44.8924 6.15163C44.8753 6.1796 44.9523 6.18623 44.9796 6.20195C45.9274 5.29413 44.016 4.94585 42.5279 4.77516C36.1282 4.73807 33.5791 9.64741 33.6347 12.503C33.8202 22.0346 49.8293 29.0335 64 32L0.558721 31.8691C-3.20569 22.7432 12.6874 3.79801 29.1419 0.582447C34.6851 -0.50084 44.3695 -0.373518 46.528 3.59409C46.9781 4.42122 46.8959 5.89593 45.0688 6.19024" fill="url(#paint0_linear_149_2)"/>
<path d="M54.4462 19.0758C54.4376 19.0898 54.4762 19.0931 54.4898 19.101C54.9637 18.6471 54.008 18.4729 53.264 18.3876C50.0641 18.369 48.7896 20.8237 48.8174 22.2515C48.9101 27.0173 56.9146 30.5167 64 32L32.2794 31.9346C30.3972 27.3716 38.3437 17.899 46.571 16.2912C49.3425 15.7496 54.1847 15.8132 55.264 17.797C55.489 18.2106 55.4479 18.948 54.5344 19.0951" fill="url(#paint1_linear_149_2)"/>
<path d="M59.2231 25.5379C59.2188 25.5449 59.2381 25.5466 59.2449 25.5505C59.4819 25.3235 59.004 25.2365 58.632 25.1938C57.032 25.1845 56.3948 26.4119 56.4087 27.1257C56.4551 29.5087 60.4573 31.2584 64 32L48.1397 31.9673C47.1986 29.6858 51.1718 24.9495 55.2855 24.1456C56.6713 23.8748 59.0924 23.9066 59.632 24.8985C59.7445 25.1053 59.724 25.474 59.2672 25.5476" fill="url(#paint2_linear_149_2)"/>
<defs>
<linearGradient id="paint0_linear_149_2" x1="63.9985" y1="-23.3244" x2="-0.000242595" y2="-23.3244" gradientUnits="userSpaceOnUse">
<stop stop-color="#33C9EF"/>
<stop offset="1" stop-color="#008C99"/>
</linearGradient>
<linearGradient id="paint1_linear_149_2" x1="63.9993" y1="4.33779" x2="31.9999" y2="4.33779" gradientUnits="userSpaceOnUse">
<stop stop-color="#33C9EF"/>
<stop offset="1" stop-color="#008C99"/>
</linearGradient>
<linearGradient id="paint2_linear_149_2" x1="63.9996" y1="18.1689" x2="47.9999" y2="18.1689" gradientUnits="userSpaceOnUse">
<stop stop-color="#33C9EF"/>
<stop offset="1" stop-color="#008C99"/>
</linearGradient>
</defs>
</svg>
