<svg width="480" height="240" viewBox="0 0 480 240" fill="none" xmlns="http://www.w3.org/2000/svg">
<path d="M336.693 46.1372C336.565 46.347 337.143 46.3967 337.347 46.5147C344.456 39.706 330.12 37.0939 318.959 35.8137C270.961 35.5355 251.843 72.3556 252.261 93.7723C253.652 165.26 373.72 217.751 480 240L4.19037 239.019C-24.0427 170.574 95.1553 28.4851 218.564 4.36835C260.138 -3.7563 332.771 -2.80139 348.96 26.9557C352.336 33.1592 351.719 44.2195 338.016 46.4268" fill="url(#paint0_linear_114_23)"/>
<path d="M408.347 143.069C408.282 143.173 408.571 143.198 408.674 143.257C412.228 139.853 405.06 138.547 399.48 137.907C375.481 137.768 365.922 156.178 366.13 166.886C366.826 202.63 426.86 228.876 480 240L242.095 239.509C227.979 205.287 287.578 134.243 349.282 122.184C370.069 118.122 406.385 118.599 414.48 133.478C416.168 136.58 415.859 142.11 409.008 143.213" fill="url(#paint1_linear_114_23)"/>
<path d="M444.173 191.534C444.141 191.587 444.286 191.599 444.337 191.629C446.114 189.926 442.53 189.273 439.74 188.953C427.74 188.884 422.961 198.089 423.065 203.443C423.413 221.315 453.43 234.438 480 240L361.048 239.755C353.989 222.644 383.789 187.121 414.641 181.092C425.035 179.061 443.193 179.3 447.24 186.739C448.084 188.29 447.93 191.055 444.504 191.607" fill="url(#paint2_linear_114_23)"/>
<defs>
<linearGradient id="paint0_linear_114_23" x1="479.989" y1="-174.933" x2="-0.00181946" y2="-174.933" gradientUnits="userSpaceOnUse">
<stop stop-color="#33C9EF"/>
<stop offset="1" stop-color="#008C99"/>
</linearGradient>
<linearGradient id="paint1_linear_114_23" x1="479.994" y1="32.5335" x2="239.999" y2="32.5335" gradientUnits="userSpaceOnUse">
<stop stop-color="#33C9EF"/>
<stop offset="1" stop-color="#008C99"/>
</linearGradient>
<linearGradient id="paint2_linear_114_23" x1="479.997" y1="136.267" x2="360" y2="136.267" gradientUnits="userSpaceOnUse">
<stop stop-color="#33C9EF"/>
<stop offset="1" stop-color="#008C99"/>
</linearGradient>
</defs>
</svg>
